<?xml version="1.0" standalone="no"?>
<!DOCTYPE svg PUBLIC "-//W3C//DTD SVG 20010904//EN"
 "http://www.w3.org/TR/2001/REC-SVG-20010904/DTD/svg10.dtd">
<svg version="1.0" xmlns="http://www.w3.org/2000/svg"
 width="700.000000pt" height="700.000000pt" viewBox="0 0 700.000000 700.000000"
 preserveAspectRatio="xMidYMid meet">
<metadata>
Created by potrace 1.14, written by Peter Selinger 2001-2017
</metadata>
<g transform="translate(0.000000,700.000000) scale(0.100000,-0.100000)"
fill="#000000" stroke="none">
<path d="M2757 6414 c-1 -1 -103 -5 -227 -8 -247 -7 -310 -10 -525 -31 -238
-22 -490 -81 -648 -152 -241 -109 -449 -305 -554 -523 -31 -64 -64 -142 -68
-160 -2 -8 -12 -42 -23 -76 -30 -92 -74 -324 -87 -459 -2 -27 -7 -77 -10 -110
-22 -221 -29 -548 -29 -1385 0 -695 6 -1094 19 -1270 9 -133 24 -293 31 -330
2 -14 7 -45 10 -70 3 -25 10 -63 14 -85 5 -22 12 -56 15 -75 12 -69 54 -206
93 -305 71 -178 223 -369 385 -483 51 -36 187 -113 207 -117 3 -1 21 -8 40
-16 38 -17 146 -52 195 -64 17 -4 39 -9 50 -12 36 -9 219 -41 270 -47 28 -4
66 -8 85 -11 31 -4 95 -9 250 -21 337 -25 2173 -25 2505 0 173 14 274 23 325
31 14 2 45 7 70 10 188 25 405 87 544 156 276 138 472 368 575 676 46 137 83
310 96 452 3 31 7 65 10 76 4 19 13 121 20 230 13 183 19 594 19 1280 0 812
-7 1123 -28 1370 -9 103 -24 227 -30 261 -2 12 -7 39 -10 60 -74 484 -288 812
-651 992 -70 35 -177 78 -220 87 -16 4 -48 13 -70 20 -23 7 -68 18 -100 24
-33 6 -69 13 -80 15 -11 2 -42 7 -68 10 -27 4 -56 9 -65 11 -15 2 -82 9 -197
20 -34 4 -201 14 -325 21 -82 5 -1808 13 -1813 8z"/>
</g>
</svg>
