<?xml version="1.0" standalone="no"?>
<!DOCTYPE svg PUBLIC "-//W3C//DTD SVG 20010904//EN"
 "http://www.w3.org/TR/2001/REC-SVG-20010904/DTD/svg10.dtd">
<svg version="1.0" xmlns="http://www.w3.org/2000/svg"
 width="700.000000pt" height="700.000000pt" viewBox="0 0 700.000000 700.000000"
 preserveAspectRatio="xMidYMid meet">
<metadata>
Created by potrace 1.14, written by Peter Selinger 2001-2017
</metadata>
<g transform="translate(0.000000,700.000000) scale(0.100000,-0.100000)"
fill="#000000" stroke="none">
<path d="M2747 6634 c-1 -1 -83 -5 -182 -8 -188 -7 -250 -11 -325 -22 -25 -4
-58 -8 -75 -10 -98 -12 -287 -69 -375 -114 -206 -103 -367 -290 -445 -514
l-20 -59 -50 -3 c-190 -12 -344 -62 -491 -160 -211 -140 -363 -377 -405 -631
-10 -61 -13 -401 -13 -1598 0 -836 3 -1548 7 -1582 32 -307 222 -583 504 -731
125 -66 243 -97 397 -106 l48 -3 33 -84 c49 -127 111 -224 200 -315 90 -91
156 -138 266 -187 139 -63 303 -102 514 -122 289 -26 1992 -27 2322 0 471 38
780 207 936 513 24 48 52 110 62 137 10 28 20 52 22 54 1 2 31 6 65 8 463 27
830 376 887 843 8 67 6 3100 -2 3154 -47 302 -244 576 -512 708 -71 36 -172
73 -218 82 -42 7 -129 17 -176 20 l-43 2 -27 70 c-40 101 -60 143 -102 204
-142 213 -354 344 -649 400 -128 25 -165 29 -405 46 -81 6 -1742 13 -1748 8z
m1788 -447 c22 -3 74 -8 115 -12 272 -23 449 -103 540 -244 30 -48 71 -156 84
-221 3 -19 8 -46 11 -59 2 -13 7 -46 10 -75 3 -28 7 -67 10 -86 12 -107 18
-528 19 -1380 2 -867 3 -958 18 -990 55 -115 180 -160 293 -106 57 27 79 51
107 112 18 41 18 81 18 986 -1 803 -5 1290 -11 1325 -5 30 3 31 70 13 183 -51
328 -203 365 -382 19 -96 19 -3058 -1 -3142 -32 -138 -136 -272 -261 -335 -61
-31 -187 -67 -177 -51 3 5 8 130 10 278 l5 269 -28 54 c-40 78 -102 114 -191
114 -74 -1 -110 -16 -159 -66 -46 -47 -59 -102 -61 -269 -5 -369 -22 -543 -67
-698 -59 -201 -171 -306 -386 -361 -43 -11 -101 -23 -130 -27 -29 -3 -66 -8
-83 -10 -227 -27 -2152 -27 -2315 0 -14 3 -47 7 -75 11 -362 45 -519 211 -560
590 -4 33 -8 76 -10 95 -26 219 -25 3730 0 3960 2 19 6 60 9 90 26 253 110
419 255 503 75 44 194 79 316 93 28 3 56 7 64 10 8 2 82 7 165 11 83 3 152 7
154 8 5 4 1839 -4 1877 -8z m-3286 -809 c-8 -126 -8 -3664 0 -3757 8 -88 4
-91 -79 -68 -173 48 -317 204 -354 381 -20 93 -19 3056 1 3140 43 184 193 335
380 380 32 8 58 15 58 15 0 1 -3 -41 -6 -91z"/>
<path d="M3731 4878 c-63 -14 -134 -87 -149 -154 -8 -32 -11 -205 -11 -514 0
-256 0 -491 0 -522 l-1 -57 -52 24 c-83 38 -183 58 -298 59 -124 1 -163 -5
-267 -39 -385 -129 -612 -526 -528 -923 38 -181 138 -343 282 -458 467 -373
1154 -129 1283 454 18 80 20 132 20 645 0 306 2 557 5 557 4 0 20 -7 37 -16
76 -39 214 -68 320 -67 163 2 266 160 200 306 -37 82 -103 122 -213 131 -35 3
-84 12 -108 21 -97 34 -197 137 -222 228 -5 21 -14 71 -18 111 -5 39 -15 85
-24 102 -26 50 -78 94 -131 109 -56 17 -63 17 -125 3z m-367 -1634 c74 -36
137 -98 172 -170 26 -53 29 -69 29 -159 0 -116 -17 -162 -90 -243 -167 -186
-475 -144 -590 79 -81 157 -32 361 113 461 76 53 135 69 228 65 62 -4 93 -11
138 -33z"/>
</g>
</svg>
